<mxfile host="app.diagrams.net" modified="2024-01-18T23:23:10.272Z" agent="Mozilla/5.0 (Windows NT 10.0; Win64; x64) AppleWebKit/537.36 (KHTML, like Gecko) Chrome/120.0.0.0 Safari/537.36 OPR/106.0.0.0" version="22.1.21" etag="q3dPK-ad6tYqfadPmjDC" type="github">
  <diagram name="Page-1" id="G63Jx9XFbe4Q4K82k8r4">
    <mxGraphModel>
      <root>
        <mxCell id="0" />
        <mxCell id="1" parent="0" />
      </root>
    </mxGraphModel>
  </diagram>
</mxfile>
